<mxfile host="65bd71144e">
    <diagram id="vhdcNku4tLCnj1_UNpPX" name="Página-1">
        <mxGraphModel dx="1018" dy="505" grid="0" gridSize="10" guides="1" tooltips="1" connect="1" arrows="1" fold="1" page="1" pageScale="1" pageWidth="827" pageHeight="1169" background="#000000" math="0" shadow="0">
            <root>
                <mxCell id="0"/>
                <mxCell id="1" parent="0"/>
                <mxCell id="2" value="Produto (ProdutoOrigem, &#10;CriadoAlteradoEm)" style="swimlane;fontStyle=0;childLayout=stackLayout;horizontal=1;startSize=26;fillColor=#1ba1e2;horizontalStack=0;resizeParent=1;resizeParentMax=0;resizeLast=0;collapsible=1;marginBottom=0;fontColor=#FFFFFF;strokeColor=#006EAF;" vertex="1" parent="1">
                    <mxGeometry x="267" y="66" width="140" height="52" as="geometry"/>
                </mxCell>
                <mxCell id="8" value="origem" style="text;strokeColor=none;fillColor=none;align=left;verticalAlign=top;spacingLeft=4;spacingRight=4;overflow=hidden;rotatable=0;points=[[0,0.5],[1,0.5]];portConstraint=eastwest;fontColor=#FFFFFF;" vertex="1" parent="2">
                    <mxGeometry y="26" width="140" height="26" as="geometry"/>
                </mxCell>
                <mxCell id="9" value="ProdutoOrigem (CriadoAlteradoEm)" style="swimlane;fontStyle=0;childLayout=stackLayout;horizontal=1;startSize=26;fillColor=#60a917;horizontalStack=0;resizeParent=1;resizeParentMax=0;resizeLast=0;collapsible=1;marginBottom=0;fontColor=#FFFFFF;strokeColor=#2D7600;" vertex="1" parent="1">
                    <mxGeometry x="43" y="66" width="201" height="182" as="geometry"/>
                </mxCell>
                <mxCell id="10" value="nome" style="text;strokeColor=none;fillColor=none;align=left;verticalAlign=top;spacingLeft=4;spacingRight=4;overflow=hidden;rotatable=0;points=[[0,0.5],[1,0.5]];portConstraint=eastwest;fontColor=#FFFFFF;" vertex="1" parent="9">
                    <mxGeometry y="26" width="201" height="26" as="geometry"/>
                </mxCell>
                <mxCell id="11" value="descricao" style="text;strokeColor=none;fillColor=none;align=left;verticalAlign=top;spacingLeft=4;spacingRight=4;overflow=hidden;rotatable=0;points=[[0,0.5],[1,0.5]];portConstraint=eastwest;fontColor=#FFFFFF;" vertex="1" parent="9">
                    <mxGeometry y="52" width="201" height="26" as="geometry"/>
                </mxCell>
                <mxCell id="45" value="categoria" style="text;strokeColor=#6F0000;fillColor=#a20025;align=left;verticalAlign=top;spacingLeft=4;spacingRight=4;overflow=hidden;rotatable=0;points=[[0,0.5],[1,0.5]];portConstraint=eastwest;fontColor=#FFFFFF;" vertex="1" parent="9">
                    <mxGeometry y="78" width="201" height="26" as="geometry"/>
                </mxCell>
                <mxCell id="12" value="valor" style="text;strokeColor=none;fillColor=none;align=left;verticalAlign=top;spacingLeft=4;spacingRight=4;overflow=hidden;rotatable=0;points=[[0,0.5],[1,0.5]];portConstraint=eastwest;fontColor=#FFFFFF;" vertex="1" parent="9">
                    <mxGeometry y="104" width="201" height="26" as="geometry"/>
                </mxCell>
                <mxCell id="13" value="quantidade" style="text;strokeColor=none;fillColor=none;align=left;verticalAlign=top;spacingLeft=4;spacingRight=4;overflow=hidden;rotatable=0;points=[[0,0.5],[1,0.5]];portConstraint=eastwest;fontColor=#FFFFFF;" vertex="1" parent="9">
                    <mxGeometry y="130" width="201" height="26" as="geometry"/>
                </mxCell>
                <mxCell id="14" value="ativo" style="text;strokeColor=none;fillColor=none;align=left;verticalAlign=top;spacingLeft=4;spacingRight=4;overflow=hidden;rotatable=0;points=[[0,0.5],[1,0.5]];portConstraint=eastwest;fontColor=#FFFFFF;" vertex="1" parent="9">
                    <mxGeometry y="156" width="201" height="26" as="geometry"/>
                </mxCell>
                <mxCell id="16" value="Venda (CriadoAlteradoEm)" style="swimlane;fontStyle=0;childLayout=stackLayout;horizontal=1;startSize=26;fillColor=#1ba1e2;horizontalStack=0;resizeParent=1;resizeParentMax=0;resizeLast=0;collapsible=1;marginBottom=0;fontColor=#FFFFFF;strokeColor=#006EAF;" vertex="1" parent="1">
                    <mxGeometry x="446" y="66" width="147" height="156" as="geometry"/>
                </mxCell>
                <mxCell id="17" value="caixa" style="text;strokeColor=#6F0000;fillColor=#a20025;align=left;verticalAlign=top;spacingLeft=4;spacingRight=4;overflow=hidden;rotatable=0;points=[[0,0.5],[1,0.5]];portConstraint=eastwest;fontColor=#FFFFFF;" vertex="1" parent="16">
                    <mxGeometry y="26" width="147" height="26" as="geometry"/>
                </mxCell>
                <mxCell id="18" value="produtos" style="text;strokeColor=#6F0000;fillColor=#a20025;align=left;verticalAlign=top;spacingLeft=4;spacingRight=4;overflow=hidden;rotatable=0;points=[[0,0.5],[1,0.5]];portConstraint=eastwest;fontColor=#FFFFFF;" vertex="1" parent="16">
                    <mxGeometry y="52" width="147" height="26" as="geometry"/>
                </mxCell>
                <mxCell id="20" value="qntd_produtos" style="text;strokeColor=none;fillColor=none;align=left;verticalAlign=top;spacingLeft=4;spacingRight=4;overflow=hidden;rotatable=0;points=[[0,0.5],[1,0.5]];portConstraint=eastwest;fontColor=#FFFFFF;" vertex="1" parent="16">
                    <mxGeometry y="78" width="147" height="26" as="geometry"/>
                </mxCell>
                <mxCell id="24" value="total" style="text;strokeColor=none;fillColor=none;align=left;verticalAlign=top;spacingLeft=4;spacingRight=4;overflow=hidden;rotatable=0;points=[[0,0.5],[1,0.5]];portConstraint=eastwest;fontColor=#FFFFFF;" vertex="1" parent="16">
                    <mxGeometry y="104" width="147" height="26" as="geometry"/>
                </mxCell>
                <mxCell id="19" value="forma_pagamento" style="text;strokeColor=none;fillColor=none;align=left;verticalAlign=top;spacingLeft=4;spacingRight=4;overflow=hidden;rotatable=0;points=[[0,0.5],[1,0.5]];portConstraint=eastwest;fontColor=#FFFFFF;" vertex="1" parent="16">
                    <mxGeometry y="130" width="147" height="26" as="geometry"/>
                </mxCell>
                <mxCell id="26" value="Caixa (CriadoAlteradoEm)" style="swimlane;fontStyle=0;childLayout=stackLayout;horizontal=1;startSize=26;fillColor=#1ba1e2;horizontalStack=0;resizeParent=1;resizeParentMax=0;resizeLast=0;collapsible=1;marginBottom=0;fontColor=#FFFFFF;strokeColor=#006EAF;" vertex="1" parent="1">
                    <mxGeometry x="659" y="66" width="142" height="156" as="geometry"/>
                </mxCell>
                <mxCell id="27" value="usuario" style="text;strokeColor=#6F0000;fillColor=#a20025;align=left;verticalAlign=top;spacingLeft=4;spacingRight=4;overflow=hidden;rotatable=0;points=[[0,0.5],[1,0.5]];portConstraint=eastwest;fontColor=#FFFFFF;" vertex="1" parent="26">
                    <mxGeometry y="26" width="142" height="26" as="geometry"/>
                </mxCell>
                <mxCell id="33" value="qntd_vendas" style="text;strokeColor=none;fillColor=none;align=left;verticalAlign=top;spacingLeft=4;spacingRight=4;overflow=hidden;rotatable=0;points=[[0,0.5],[1,0.5]];portConstraint=eastwest;fontColor=#FFFFFF;" vertex="1" parent="26">
                    <mxGeometry y="52" width="142" height="26" as="geometry"/>
                </mxCell>
                <mxCell id="34" value="sangrias" style="text;strokeColor=#6F0000;fillColor=#a20025;align=left;verticalAlign=top;spacingLeft=4;spacingRight=4;overflow=hidden;rotatable=0;points=[[0,0.5],[1,0.5]];portConstraint=eastwest;fontColor=#FFFFFF;" vertex="1" parent="26">
                    <mxGeometry y="78" width="142" height="26" as="geometry"/>
                </mxCell>
                <mxCell id="29" value="total" style="text;strokeColor=none;fillColor=none;align=left;verticalAlign=top;spacingLeft=4;spacingRight=4;overflow=hidden;rotatable=0;points=[[0,0.5],[1,0.5]];portConstraint=eastwest;fontColor=#FFFFFF;" vertex="1" parent="26">
                    <mxGeometry y="104" width="142" height="26" as="geometry"/>
                </mxCell>
                <mxCell id="30" value="aberto" style="text;strokeColor=none;fillColor=none;align=left;verticalAlign=top;spacingLeft=4;spacingRight=4;overflow=hidden;rotatable=0;points=[[0,0.5],[1,0.5]];portConstraint=eastwest;fontColor=#FFFFFF;" vertex="1" parent="26">
                    <mxGeometry y="130" width="142" height="26" as="geometry"/>
                </mxCell>
                <mxCell id="36" value="Sangria (CriadoAlteradoEm)" style="swimlane;fontStyle=0;childLayout=stackLayout;horizontal=1;startSize=26;fillColor=#1ba1e2;horizontalStack=0;resizeParent=1;resizeParentMax=0;resizeLast=0;collapsible=1;marginBottom=0;fontColor=#FFFFFF;strokeColor=#006EAF;" vertex="1" parent="1">
                    <mxGeometry x="653" y="337" width="159" height="78" as="geometry"/>
                </mxCell>
                <mxCell id="37" value="valor" style="text;strokeColor=none;fillColor=none;align=left;verticalAlign=top;spacingLeft=4;spacingRight=4;overflow=hidden;rotatable=0;points=[[0,0.5],[1,0.5]];portConstraint=eastwest;fontColor=#FFFFFF;" vertex="1" parent="36">
                    <mxGeometry y="26" width="159" height="26" as="geometry"/>
                </mxCell>
                <mxCell id="38" value="descricao" style="text;strokeColor=none;fillColor=none;align=left;verticalAlign=top;spacingLeft=4;spacingRight=4;overflow=hidden;rotatable=0;points=[[0,0.5],[1,0.5]];portConstraint=eastwest;fontColor=#FFFFFF;" vertex="1" parent="36">
                    <mxGeometry y="52" width="159" height="26" as="geometry"/>
                </mxCell>
                <mxCell id="46" value="Categoria (CriadoAlteradoEm)" style="swimlane;fontStyle=0;childLayout=stackLayout;horizontal=1;startSize=26;fillColor=#1ba1e2;horizontalStack=0;resizeParent=1;resizeParentMax=0;resizeLast=0;collapsible=1;marginBottom=0;fontColor=#FFFFFF;strokeColor=#006EAF;" vertex="1" parent="1">
                    <mxGeometry x="267" y="174" width="168" height="78" as="geometry"/>
                </mxCell>
                <mxCell id="47" value="nome" style="text;strokeColor=none;fillColor=none;align=left;verticalAlign=top;spacingLeft=4;spacingRight=4;overflow=hidden;rotatable=0;points=[[0,0.5],[1,0.5]];portConstraint=eastwest;fontColor=#FFFFFF;" vertex="1" parent="46">
                    <mxGeometry y="26" width="168" height="26" as="geometry"/>
                </mxCell>
                <mxCell id="51" value="descricao" style="text;strokeColor=none;fillColor=none;align=left;verticalAlign=top;spacingLeft=4;spacingRight=4;overflow=hidden;rotatable=0;points=[[0,0.5],[1,0.5]];portConstraint=eastwest;fontColor=#FFFFFF;" vertex="1" parent="46">
                    <mxGeometry y="52" width="168" height="26" as="geometry"/>
                </mxCell>
                <mxCell id="55" value="CriadoAlteradoEm" style="swimlane;fontStyle=0;childLayout=stackLayout;horizontal=1;startSize=26;fillColor=#60a917;horizontalStack=0;resizeParent=1;resizeParentMax=0;resizeLast=0;collapsible=1;marginBottom=0;fontColor=#FFFFFF;strokeColor=#2D7600;" vertex="1" parent="1">
                    <mxGeometry x="43" y="274" width="140" height="78" as="geometry">
                        <mxRectangle x="21" y="282" width="125" height="26" as="alternateBounds"/>
                    </mxGeometry>
                </mxCell>
                <mxCell id="58" value="criado_em" style="text;strokeColor=none;fillColor=none;align=left;verticalAlign=top;spacingLeft=4;spacingRight=4;overflow=hidden;rotatable=0;points=[[0,0.5],[1,0.5]];portConstraint=eastwest;fontColor=#FFFFFF;" vertex="1" parent="55">
                    <mxGeometry y="26" width="140" height="26" as="geometry"/>
                </mxCell>
                <mxCell id="59" value="alterado_em" style="text;strokeColor=none;fillColor=none;align=left;verticalAlign=top;spacingLeft=4;spacingRight=4;overflow=hidden;rotatable=0;points=[[0,0.5],[1,0.5]];portConstraint=eastwest;fontColor=#FFFFFF;" vertex="1" parent="55">
                    <mxGeometry y="52" width="140" height="26" as="geometry"/>
                </mxCell>
                <mxCell id="25" value="" style="edgeStyle=none;exitX=0.455;exitY=1.011;exitDx=0;exitDy=0;exitPerimeter=0;fontColor=#FFFFFF;labelBorderColor=none;" edge="1" parent="1" source="8" target="18">
                    <mxGeometry relative="1" as="geometry">
                        <Array as="points">
                            <mxPoint x="331" y="131"/>
                        </Array>
                    </mxGeometry>
                </mxCell>
                <mxCell id="35" value="" style="edgeStyle=none;exitX=0.5;exitY=0;exitDx=0;exitDy=0;fontColor=#FFFFFF;labelBorderColor=none;" edge="1" parent="1" source="26" target="17">
                    <mxGeometry relative="1" as="geometry">
                        <Array as="points">
                            <mxPoint x="729" y="49"/>
                            <mxPoint x="625" y="49"/>
                            <mxPoint x="625" y="105"/>
                        </Array>
                    </mxGeometry>
                </mxCell>
                <mxCell id="44" value="" style="edgeStyle=none;entryX=1;entryY=0.5;entryDx=0;entryDy=0;exitX=0.481;exitY=-0.007;exitDx=0;exitDy=0;exitPerimeter=0;fontColor=#FFFFFF;labelBorderColor=none;" edge="1" parent="1" source="36" target="34">
                    <mxGeometry relative="1" as="geometry">
                        <Array as="points">
                            <mxPoint x="729" y="315"/>
                            <mxPoint x="832" y="315"/>
                            <mxPoint x="832" y="157"/>
                        </Array>
                    </mxGeometry>
                </mxCell>
                <mxCell id="54" value="" style="edgeStyle=none;entryX=0.993;entryY=0.402;entryDx=0;entryDy=0;entryPerimeter=0;fontColor=#FFFFFF;labelBorderColor=none;" edge="1" parent="1" source="46" target="45">
                    <mxGeometry relative="1" as="geometry">
                        <mxPoint x="286" y="149" as="targetPoint"/>
                        <Array as="points">
                            <mxPoint x="351" y="155"/>
                        </Array>
                    </mxGeometry>
                </mxCell>
            </root>
        </mxGraphModel>
    </diagram>
</mxfile>